<svg xmlns="http://www.w3.org/2000/svg" width="750" height="1334" viewBox="0 0 750 1334">
<defs>
  <linearGradient id="proposalFlow" x1="0" y1="0" x2="1" y2="0">
    <stop offset="0%" stop-color="#9b8cff" stop-opacity=".08"/>
    <stop offset="54%" stop-color="#9b8cff" stop-opacity=".52"/>
    <stop offset="72%" stop-color="#2dd4bf" stop-opacity=".48"/>
    <stop offset="100%" stop-color="#2dd4bf" stop-opacity=".18"/>
  </linearGradient>

  <linearGradient id="approvedFlow" x1="0" y1="0" x2="1" y2="0">
    <stop offset="0%" stop-color="#2dd4bf" stop-opacity=".18"/>
    <stop offset="50%" stop-color="#2dd4bf" stop-opacity=".72"/>
    <stop offset="100%" stop-color="#2dd4bf" stop-opacity=".08"/>
  </linearGradient>

  <radialGradient id="violetGlow">
    <stop offset="0%" stop-color="#9b8cff" stop-opacity=".18"/>
    <stop offset="100%" stop-color="#9b8cff" stop-opacity="0"/>
  </radialGradient>

  <radialGradient id="tealGlow">
    <stop offset="0%" stop-color="#2dd4bf" stop-opacity=".20"/>
    <stop offset="100%" stop-color="#2dd4bf" stop-opacity="0"/>
  </radialGradient>

  <pattern id="dotgrid" width="30" height="30" patternUnits="userSpaceOnUse">
    <circle cx="1.4" cy="1.4" r="1.1" fill="#ecf2f0" fill-opacity=".035"/>
  </pattern>

  <filter id="shadow" x="-45%" y="-45%" width="190%" height="190%">
    <feDropShadow dx="0" dy="12" stdDeviation="16"
      flood-color="#000000" flood-opacity="0.34"/>
  </filter>

  <filter id="softShadow" x="-35%" y="-35%" width="170%" height="170%">
    <feDropShadow dx="0" dy="6" stdDeviation="9"
      flood-color="#000000" flood-opacity=".20"/>
  </filter>

  <filter id="blur32"><feGaussianBlur stdDeviation="32"/></filter>
  <filter id="blur56"><feGaussianBlur stdDeviation="56"/></filter>
</defs>
<rect width="750" height="1334" fill="url(#dotgrid)"/><circle cx="665" cy="170" r="195" fill="url(#violetGlow)" filter="url(#blur36)"/><circle cx="675" cy="1110" r="210" fill="url(#tealGlow)" filter="url(#blur36)"/><ellipse cx="355" cy="560" rx="345" ry="545" fill="#0b1210" fill-opacity=".976" filter="url(#blur36)"/><g transform="rotate(-4 642.5 90)"><rect x="565" y="65" width="155" height="50" rx="13" fill="#121b19" fill-opacity=".40" stroke="#9b8cff" stroke-opacity=".30" filter="url(#softShadow)"/><circle cx="583" cy="83" r="5.5" fill="#9b8cff" fill-opacity=".88"/><rect x="596" y="78" width="65.1" height="6" rx="3" fill="#ecf2f0" fill-opacity=".20"/><rect x="596" y="93" width="89.89999999999999" height="5" rx="2.5" fill="#ecf2f0" fill-opacity=".10"/></g><g transform="rotate(3 677.5 170)"><rect x="610" y="145" width="135" height="50" rx="13" fill="#121b19" fill-opacity=".40" stroke="#9b8cff" stroke-opacity=".14" filter="url(#softShadow)"/><circle cx="628" cy="163" r="5.5" fill="#9b8cff" fill-opacity=".45"/><rect x="641" y="158" width="56.699999999999996" height="6" rx="3" fill="#ecf2f0" fill-opacity=".10"/><rect x="641" y="173" width="78.3" height="5" rx="2.5" fill="#ecf2f0" fill-opacity=".06"/></g><g transform="rotate(-2 632.5 250)"><rect x="550" y="225" width="165" height="50" rx="13" fill="#121b19" fill-opacity=".40" stroke="#9b8cff" stroke-opacity=".30" filter="url(#softShadow)"/><circle cx="568" cy="243" r="5.5" fill="#9b8cff" fill-opacity=".88"/><rect x="581" y="238" width="69.3" height="6" rx="3" fill="#ecf2f0" fill-opacity=".20"/><rect x="581" y="253" width="95.69999999999999" height="5" rx="2.5" fill="#ecf2f0" fill-opacity=".10"/></g><path d="M645 285 C710 430,650 555,700 700 C725 780,690 850,650 915" fill="none" stroke="url(#proposalFlow)" stroke-width="2.6" stroke-opacity=".42"/><circle cx="620" cy="955" r="31.2" fill="#2dd4bf" fill-opacity=".075" stroke="#2dd4bf" stroke-opacity=".22" stroke-width="0.8999999999999999"/><circle cx="620" cy="955" r="22.2" fill="#121b19" fill-opacity=".76" stroke="#2dd4bf" stroke-opacity=".42" stroke-width="1.2" filter="url(#softShadow)"/><polygon points="620,943.0 631.4,947.8 629.6,962.2 620,968.8 610.4,962.2 608.6,947.8" fill="#2dd4bf" fill-opacity=".10" stroke="#2dd4bf" stroke-opacity=".66" stroke-width="1.08"/><path d="M 615.59 955 L 618.74 958.15 L 625.04 951.22" fill="none" stroke="#2dd4bf" stroke-width="1.575" stroke-linecap="round" stroke-linejoin="round"/><path d="M415.2 1009.5 C452.04999999999995 1009.5,452.04999999999995 987.0,488.9 987.0" fill="none" stroke="#9b8cff" stroke-opacity=".24" stroke-width="2.2" stroke-dasharray="6 8"/><path d="M415.2 1009.5 C457.075 1009.5,457.075 1059.0,498.95 1059.0" fill="none" stroke="#9b8cff" stroke-opacity=".24" stroke-width="2.2" stroke-dasharray="6 8"/><path d="M488.9 987.0 C530.775 987.0,530.775 1032.0,572.65 1032.0" fill="none" stroke="#2dd4bf" stroke-opacity=".34" stroke-width="2.2"/><path d="M498.95 1059.0 C535.8 1059.0,535.8 1032.0,572.65 1032.0" fill="none" stroke="#2dd4bf" stroke-opacity=".34" stroke-width="2.2"/><path d="M572.65 1032.0 C604.4749999999999 1032.0,604.4749999999999 996.0,636.3 996.0" fill="none" stroke="#2dd4bf" stroke-opacity=".34" stroke-width="2.2"/><path d="M572.65 1032.0 C611.175 1032.0,611.175 1074.75,649.7 1074.75" fill="none" stroke="#2dd4bf" stroke-opacity=".34" stroke-width="2.2"/><path d="M572.65 1032.0 C582.7 1032.0,582.7 1122.0,592.75 1122.0" fill="none" stroke="#2dd4bf" stroke-opacity=".34" stroke-width="2.2"/><path d="M592.75 1122.0 C634.625 1122.0,634.625 1135.5,676.5 1135.5" fill="none" stroke="#2dd4bf" stroke-opacity=".34" stroke-width="2.2"/><path d="M649.7 1074.75 C663.1 1074.75,663.1 1135.5,676.5 1135.5" fill="none" stroke="#2dd4bf" stroke-opacity=".34" stroke-width="2.2"/><circle cx="415.2" cy="1009.5" r="15" fill="#9b8cff" fill-opacity=".09"/><circle cx="415.2" cy="1009.5" r="9" fill="#121b19" fill-opacity=".85" stroke="#9b8cff" stroke-width="2.2" stroke-opacity=".86"/><circle cx="415.2" cy="1009.5" r="3.6" fill="#9b8cff" fill-opacity=".88"/><circle cx="488.9" cy="987.0" r="15" fill="#9b8cff" fill-opacity=".09"/><circle cx="488.9" cy="987.0" r="9" fill="#121b19" fill-opacity=".85" stroke="#9b8cff" stroke-width="2.2" stroke-opacity=".86"/><circle cx="488.9" cy="987.0" r="3.6" fill="#9b8cff" fill-opacity=".88"/><circle cx="498.95" cy="1059.0" r="15" fill="#9b8cff" fill-opacity=".09"/><circle cx="498.95" cy="1059.0" r="9" fill="#121b19" fill-opacity=".85" stroke="#9b8cff" stroke-width="2.2" stroke-opacity=".86"/><circle cx="498.95" cy="1059.0" r="3.6" fill="#9b8cff" fill-opacity=".88"/><circle cx="572.65" cy="1032.0" r="16" fill="#2dd4bf" fill-opacity=".09"/><circle cx="572.65" cy="1032.0" r="10" fill="#121b19" fill-opacity=".85" stroke="#2dd4bf" stroke-width="2.2" stroke-opacity=".86"/><path d="M 568.59 1032.0 L 571.49 1034.9 L 577.29 1028.52" fill="none" stroke="#2dd4bf" stroke-width="1.45" stroke-linecap="round" stroke-linejoin="round"/><circle cx="636.3" cy="996.0" r="16" fill="#2dd4bf" fill-opacity=".09"/><circle cx="636.3" cy="996.0" r="10" fill="#121b19" fill-opacity=".85" stroke="#2dd4bf" stroke-width="2.2" stroke-opacity=".86"/><path d="M 632.24 996.0 L 635.14 998.9 L 640.9399999999999 992.52" fill="none" stroke="#2dd4bf" stroke-width="1.45" stroke-linecap="round" stroke-linejoin="round"/><circle cx="649.7" cy="1074.75" r="16" fill="#2dd4bf" fill-opacity=".09"/><circle cx="649.7" cy="1074.75" r="10" fill="#121b19" fill-opacity=".85" stroke="#2dd4bf" stroke-width="2.2" stroke-opacity=".86"/><path d="M 645.6400000000001 1074.75 L 648.5400000000001 1077.65 L 654.34 1071.27" fill="none" stroke="#2dd4bf" stroke-width="1.45" stroke-linecap="round" stroke-linejoin="round"/><circle cx="592.75" cy="1122.0" r="16" fill="#2dd4bf" fill-opacity=".09"/><circle cx="592.75" cy="1122.0" r="10" fill="#121b19" fill-opacity=".85" stroke="#2dd4bf" stroke-width="2.2" stroke-opacity=".86"/><path d="M 588.69 1122.0 L 591.59 1124.9 L 597.39 1118.52" fill="none" stroke="#2dd4bf" stroke-width="1.45" stroke-linecap="round" stroke-linejoin="round"/><circle cx="676.5" cy="1135.5" r="16" fill="#2dd4bf" fill-opacity=".09"/><circle cx="676.5" cy="1135.5" r="10" fill="#121b19" fill-opacity=".85" stroke="#2dd4bf" stroke-width="2.2" stroke-opacity=".86"/><path d="M 672.44 1135.5 L 675.34 1138.4 L 681.14 1132.02" fill="none" stroke="#2dd4bf" stroke-width="1.45" stroke-linecap="round" stroke-linejoin="round"/><rect x="430" y="1135" width="275" height="150" rx="18" fill="#121b19" fill-opacity="0.52" stroke="#2dd4bf" stroke-opacity="0.12" stroke-width="1.25" filter="url(#softShadow)"/><rect x="448.0" y="1153" width="73.66666666666667" height="114" rx="10" fill="#1a2623" fill-opacity=".52"/><rect x="458.0" y="1164" width="33.88666666666667" height="6" rx="3" fill="#ecf2f0" fill-opacity=".14"/><rect x="456.0" y="1183" width="57.66666666666667" height="22" rx="7" fill="#9b8cff" fill-opacity=".12" stroke="#9b8cff" stroke-opacity=".15"/><rect x="456.0" y="1213" width="57.66666666666667" height="22" rx="7" fill="#9b8cff" fill-opacity=".12" stroke="#9b8cff" stroke-opacity=".15"/><rect x="456.0" y="1243" width="57.66666666666667" height="22" rx="7" fill="#9b8cff" fill-opacity=".12" stroke="#9b8cff" stroke-opacity=".15"/><rect x="530.6666666666666" y="1153" width="73.66666666666667" height="114" rx="10" fill="#1a2623" fill-opacity=".52"/><rect x="540.6666666666666" y="1164" width="33.88666666666667" height="6" rx="3" fill="#ecf2f0" fill-opacity=".14"/><rect x="538.6666666666666" y="1183" width="57.66666666666667" height="22" rx="7" fill="#ecf2f0" fill-opacity=".12" stroke="#ecf2f0" stroke-opacity=".15"/><rect x="538.6666666666666" y="1213" width="57.66666666666667" height="22" rx="7" fill="#ecf2f0" fill-opacity=".12" stroke="#ecf2f0" stroke-opacity=".15"/><rect x="538.6666666666666" y="1243" width="57.66666666666667" height="22" rx="7" fill="#ecf2f0" fill-opacity=".12" stroke="#ecf2f0" stroke-opacity=".15"/><rect x="613.3333333333334" y="1153" width="73.66666666666667" height="114" rx="10" fill="#1a2623" fill-opacity=".52"/><rect x="623.3333333333334" y="1164" width="33.88666666666667" height="6" rx="3" fill="#ecf2f0" fill-opacity=".14"/><rect x="621.3333333333334" y="1183" width="57.66666666666667" height="22" rx="7" fill="#2dd4bf" fill-opacity=".12" stroke="#2dd4bf" stroke-opacity=".15"/><rect x="621.3333333333334" y="1213" width="57.66666666666667" height="22" rx="7" fill="#2dd4bf" fill-opacity=".12" stroke="#2dd4bf" stroke-opacity=".15"/><rect x="155" y="1225" width="60" height="28" rx="14" fill="#9b8cff" fill-opacity=".13" stroke="#9b8cff" stroke-opacity=".22"/><path d="M168 1235H178M168 1239H182M168 1243H176" stroke="#9b8cff" stroke-width="1.4" stroke-linecap="round"/><rect x="187" y="1236" width="17" height="6" rx="3" fill="#9b8cff" fill-opacity=".28"/><rect x="227" y="1225" width="60" height="28" rx="14" fill="#2dd4bf" fill-opacity=".13" stroke="#2dd4bf" stroke-opacity=".22"/><path d="M 241.5 1239 L 244.0 1241.5 L 249.0 1236.0" fill="none" stroke="#2dd4bf" stroke-width="1.25" stroke-linecap="round" stroke-linejoin="round"/><rect x="259" y="1236" width="17" height="6" rx="3" fill="#2dd4bf" fill-opacity=".28"/><rect x="299" y="1225" width="60" height="28" rx="14" fill="#2dd4bf" fill-opacity=".13" stroke="#2dd4bf" stroke-opacity=".22"/><circle cx="317" cy="1239" r="5.5" fill="#2dd4bf" fill-opacity=".80"/><rect x="331" y="1236" width="17" height="6" rx="3" fill="#2dd4bf" fill-opacity=".28"/><g transform="rotate(5 87.5 1155)"><rect x="20" y="1130" width="135" height="50" rx="13" fill="#121b19" fill-opacity=".40" stroke="#9b8cff" stroke-opacity=".14" filter="url(#softShadow)"/><circle cx="38" cy="1148" r="5.5" fill="#9b8cff" fill-opacity=".45"/><rect x="51" y="1143" width="56.699999999999996" height="6" rx="3" fill="#ecf2f0" fill-opacity=".10"/><rect x="51" y="1158" width="78.3" height="5" rx="2.5" fill="#ecf2f0" fill-opacity=".06"/></g></svg>